<svg width="42" height="46" viewBox="0 0 42 46" fill="none" xmlns="http://www.w3.org/2000/svg">
    <path d="M16 1.88675C19.094 0.100423 22.906 0.100424 26 1.88675L36.7846 8.11325C39.8786 9.89958 41.7846 13.2008 41.7846 16.7735V29.2265C41.7846 32.7992 39.8786 36.1004 36.7846 37.8868L26 44.1132C22.906 45.8996 19.094 45.8996 16 44.1132L5.21539 37.8868C2.12138 36.1004 0.215391 32.7992 0.215391 29.2265V16.7735C0.215391 13.2008 2.12138 9.89958 5.21539 8.11325L16 1.88675Z"
        fill="#05D8E8" fill-opacity="0.2" />
    <path d="M13.5 23.366C12.8333 22.9811 12.8333 22.0189 13.5 21.634L23.25 16.0048C23.9167 15.6199 24.75 16.101 24.75 16.8708V28.1292C24.75 28.899 23.9167 29.3801 23.25 28.9952L13.5 23.366Z"
        fill="white" />
</svg>
