<svg width="15" height="12" viewBox="0 0 15 12" fill="none" xmlns="http://www.w3.org/2000/svg">
    <path d="M7.39194 11.3889C7.37045 11.4015 7.34999 11.4133 7.33059 11.4245C7.31092 11.413 7.29014 11.4008 7.2683 11.3879C7.07254 11.2723 6.79162 11.102 6.45398 10.8852C5.77772 10.4509 4.87868 9.83274 3.98212 9.09517C3.08309 8.35557 2.20146 7.50798 1.54839 6.61719C0.891201 5.72079 0.5 4.82784 0.5 3.98706C0.5 2.06129 2.06114 0.50012 3.98694 0.500136L3.99084 0.500105C5.16801 0.490925 6.26854 1.08301 6.90956 2.0704L7.32649 2.71261L7.74684 2.07263C8.39304 1.08883 9.49201 0.497477 10.6691 0.500118C12.5916 0.509808 14.1478 2.06581 14.1578 3.98831C14.1574 4.84481 13.765 5.7451 13.109 6.64248C12.4563 7.53537 11.5752 8.38075 10.6766 9.11639C9.78051 9.85003 8.88186 10.4625 8.20588 10.8921C7.86838 11.1066 7.58759 11.2748 7.39194 11.3889Z"
        stroke="white" />
</svg>
