<svg width="33" height="33" viewBox="0 0 33 33" fill="none" xmlns="http://www.w3.org/2000/svg">
    <path d="M13.9516 9.10345C13.1185 9.10345 12.3195 9.45031 11.7304 10.0677C11.1413 10.6851 10.8103 11.5225 10.8103 12.3957V21.1748C10.8106 21.7602 10.9598 22.3349 11.2425 22.8397C11.5252 23.3446 11.9312 23.7613 12.4187 24.0469C12.9062 24.3326 13.4575 24.4768 14.0159 24.4648C14.5743 24.4528 15.1196 24.285 15.5955 23.9787L22.4016 19.5891C22.8585 19.2944 23.2358 18.882 23.4975 18.3912C23.7592 17.9004 23.8966 17.3475 23.8966 16.7852C23.8966 16.223 23.7592 15.6701 23.4975 15.1793C23.2358 14.6885 22.8585 14.2761 22.4016 13.9814L15.5955 9.5918C15.1011 9.27295 14.5321 9.10391 13.9516 9.10345ZM13.9516 21.1748V12.3957L20.7577 16.7852L13.9516 21.1748Z"
        fill="#FF296D" />
    <path d="M30.263 10.7101C31.0306 10.2669 31.2936 9.28538 30.8504 8.51777C30.4072 7.75016 29.4257 7.48716 28.6581 7.93034C27.8905 8.37352 27.6275 9.35506 28.0706 10.1227C28.5138 10.8903 29.4954 11.1533 30.263 10.7101Z"
        fill="#FF296D" />
    <path d="M25.5012 4.77703C25.9444 4.00942 25.6814 3.02788 24.9138 2.5847C24.1462 2.14152 23.1646 2.40452 22.7214 3.17213C22.2783 3.93974 22.5413 4.92128 23.3089 5.36446C24.0765 5.80764 25.058 5.54464 25.5012 4.77703Z"
        fill="#FF296D" />
    <path d="M29.8065 16.5C29.8065 19.1318 29.026 21.7044 27.5639 23.8927C26.1018 26.0809 24.0236 27.7864 21.5922 28.7935C19.1607 29.8007 16.4852 30.0642 13.904 29.5508C11.3228 29.0373 8.95186 27.77 7.09092 25.9091C5.22998 24.0481 3.96267 21.6772 3.44923 19.096C2.9358 16.5148 3.19931 13.8393 4.20645 11.4078C5.21358 8.9764 6.9191 6.89822 9.10734 5.43609C11.2956 3.97396 13.8682 3.19355 16.5 3.19355H18.0968V0H16.5C13.2366 0 10.0465 0.967708 7.3331 2.78075C4.61969 4.59379 2.50484 7.17074 1.25599 10.1857C0.00714918 13.2007 -0.319606 16.5183 0.31705 19.719C0.953706 22.9197 2.52518 25.8597 4.83274 28.1673C7.14031 30.4748 10.0803 32.0463 13.281 32.6829C16.4817 33.3196 19.7993 32.9928 22.8143 31.744C25.8293 30.4952 28.4062 28.3803 30.2192 25.6669C32.0323 22.9535 33 19.7634 33 16.5V14.9032H29.8065V16.5Z"
        fill="#FF296D" />
</svg>
