<svg width="161" height="171" viewBox="0 0 111 121" fill="none" xmlns="http://www.w3.org/2000/svg">
    <path d="M45.5 21.7735C51.688 18.2008 59.312 18.2008 65.5 21.7735L84.0381 32.4765C90.2262 36.0492 94.0381 42.6517 94.0381 49.797V71.203C94.0381 78.3483 90.2262 84.9508 84.0381 88.5235L65.5 99.2265C59.312 102.799 51.688 102.799 45.5 99.2265L26.9619 88.5235C20.7738 84.9508 16.9619 78.3483 16.9619 71.203V49.797C16.9619 42.6517 20.7738 36.0492 26.9619 32.4765L45.5 21.7735Z"
        fill="#FF296D" />
    <g filter="url(#filter0_i_0:1)">
        <path d="M65.25 3.20652L100.243 23.4095C106.276 26.8929 109.993 33.3303 109.993 40.297V80.703C109.993 87.6697 106.276 94.1071 100.243 97.5905L65.25 117.793C59.2167 121.277 51.7833 121.277 45.75 117.793L10.7574 97.5905C4.72406 94.1071 1.00739 87.6697 1.00739 80.703V40.297C1.00739 33.3303 4.72406 26.8928 10.7574 23.4095L45.75 3.20651C51.7833 -0.276825 59.2167 -0.276824 65.25 3.20652Z"
            stroke="#FF296D" />
    </g>
    <g filter="url(#filter1_i_0:1)">
        <path d="M65.25 11.2065L93.3144 27.4095C99.3477 30.8929 103.064 37.3303 103.064 44.297V76.703C103.064 83.6697 99.3477 90.1071 93.3144 93.5905L65.25 109.793C59.2167 113.277 51.7833 113.277 45.75 109.793L17.6856 93.5905C11.6523 90.1071 7.93559 83.6697 7.93559 76.703V44.297C7.93559 37.3303 11.6523 30.8928 17.6856 27.4095L45.75 11.2065C51.7833 7.72318 59.2167 7.72318 65.25 11.2065Z"
            stroke="#05D8E8" />
    </g>
    <path d="M69.5 63.0981C71.5 61.9434 71.5 59.0566 69.5 57.9019L50.75 47.0766C48.75 45.9219 46.25 47.3653 46.25 49.6747V71.3253C46.25 73.6347 48.75 75.0781 50.75 73.9234L69.5 63.0981Z"
        fill="white" />
    <defs>
        <filter id="filter0_i_0:1" x="0.507385" y="0.0940247" width="109.985" height="124.812"
            filterUnits="userSpaceOnUse" color-interpolation-filters="sRGB">
            <feFlood flood-opacity="0" result="BackgroundImageFix" />
            <feBlend mode="normal" in="SourceGraphic" in2="BackgroundImageFix" result="shape" />
            <feColorMatrix in="SourceAlpha" type="matrix" values="0 0 0 0 0 0 0 0 0 0 0 0 0 0 0 0 0 0 127 0" result="hardAlpha" />
            <feOffset dy="4" />
            <feGaussianBlur stdDeviation="2" />
            <feComposite in2="hardAlpha" operator="arithmetic" k2="-1" k3="1" />
            <feColorMatrix type="matrix" values="0 0 0 0 0 0 0 0 0 0 0 0 0 0 0 0 0 0 0.25 0" />
            <feBlend mode="normal" in2="shape" result="effect1_innerShadow_0:1" />
        </filter>
        <filter id="filter1_i_0:1" x="7.43559" y="8.09402" width="96.1288" height="108.812"
            filterUnits="userSpaceOnUse" color-interpolation-filters="sRGB">
            <feFlood flood-opacity="0" result="BackgroundImageFix" />
            <feBlend mode="normal" in="SourceGraphic" in2="BackgroundImageFix" result="shape" />
            <feColorMatrix in="SourceAlpha" type="matrix" values="0 0 0 0 0 0 0 0 0 0 0 0 0 0 0 0 0 0 127 0" result="hardAlpha" />
            <feOffset dy="4" />
            <feGaussianBlur stdDeviation="2" />
            <feComposite in2="hardAlpha" operator="arithmetic" k2="-1" k3="1" />
            <feColorMatrix type="matrix" values="0 0 0 0 0 0 0 0 0 0 0 0 0 0 0 0 0 0 0.25 0" />
            <feBlend mode="normal" in2="shape" result="effect1_innerShadow_0:1" />
        </filter>
    </defs>
</svg>
