<svg width="19" height="16" viewBox="0 0 19 16" fill="none" xmlns="http://www.w3.org/2000/svg">
    <path d="M2.61179 11.4877H4.39047L9.63972 15.8161C9.78688 15.9373 9.96864 16 10.1522 16C10.2688 16 10.386 15.9747 10.4955 15.9231C10.7775 15.7901 10.9574 15.5064 10.9574 15.1947V0.805317C10.9574 0.493601 10.7775 0.2099 10.4955 0.0768981C10.2136 -0.0560074 9.88036 -0.0143255 9.63972 0.184048L4.38556 4.51633H2.61179C1.17166 4.51633 0 5.68799 0 7.12812V8.87584C-2.01323e-06 10.3161 1.17166 11.4877 2.61179 11.4877ZM1.61058 7.12812C1.61058 6.57605 2.05973 6.12691 2.61179 6.12691H4.67476C4.86173 6.12691 5.0428 6.06184 5.18711 5.94289L9.34678 2.51303V13.487L5.18712 10.0571C5.04064 9.93632 4.85987 9.87439 4.67722 9.87439C4.6552 9.87439 4.63318 9.87537 4.61116 9.87714H2.61179C2.05973 9.87714 1.61059 9.428 1.61059 8.87584V7.12812H1.61058Z"
        fill="#32324E" />
    <path d="M15.6066 13.4467C15.7466 13.5438 15.9065 13.5904 16.065 13.5904C16.32 13.5904 16.571 13.4695 16.7274 13.2441C17.5854 12.0074 18.039 10.2462 18.039 8.15086C18.039 6.05555 17.5854 4.29436 16.7274 3.05762C16.4735 2.69223 15.9719 2.6014 15.6066 2.85502C15.2412 3.10864 15.1505 3.61037 15.404 3.97576C16.0646 4.92782 16.4284 6.41051 16.4284 8.15086C16.4284 9.8912 16.0646 11.3739 15.404 12.326C15.1505 12.6913 15.2412 13.1931 15.6066 13.4467Z"
        fill="#32324E" />
    <path d="M13.0127 11.9463C13.1219 11.9967 13.2366 12.0206 13.3496 12.0206C13.6539 12.0206 13.9454 11.8471 14.0812 11.5526C14.4941 10.6579 14.7215 9.44983 14.7215 8.15086C14.7215 6.852 14.4941 5.64396 14.0812 4.74921C13.8949 4.34539 13.4163 4.16923 13.0127 4.35541C12.6089 4.54169 12.4325 5.02013 12.6189 5.42396C12.9316 6.10165 13.1109 7.09559 13.1109 8.15086C13.1109 9.20624 12.9316 10.2002 12.6189 10.8778C12.4325 11.2816 12.6089 11.7599 13.0127 11.9463Z"
        fill="#32324E" />
</svg>
