<svg xmlns="http://www.w3.org/2000/svg" width="30.575" height="25.221" viewBox="0 0 30.575 25.221">
    <g id="youtube" transform="translate(0 3.312)" opacity="0.211">
        <path id="Path_13" data-name="Path 13" d="M226,208.07v5.385l4.309-2.693Z" transform="translate(-215.123 -199.808)" fill="#cfd7ed" />
        <path id="Path_14" data-name="Path 14" d="M6.1,82.909H23.621A4.218,4.218,0,0,0,27.834,78.7V65.213A4.218,4.218,0,0,0,23.621,61H6.1a4.218,4.218,0,0,0-4.213,4.213V78.7A4.218,4.218,0,0,0,6.1,82.909Zm4.978-15.168a.842.842,0,0,1,1.29-.714L19.1,71.24a.842.842,0,0,1,0,1.429l-6.741,4.213a.842.842,0,0,1-1.29-.714Z"
            transform="translate(-1.882 -61)" fill="#cfd7ed" />
    </g>
    <g id="Ellipse_24" data-name="Ellipse 24" transform="translate(19.575)" fill="#f31954" stroke="#fff" stroke-width="1">
        <circle cx="5.5" cy="5.5" r="5.5" stroke="none" />
        <circle cx="5.5" cy="5.5" r="5" fill="none" />
    </g>
</svg>
